<?xml version="1.0" ?><svg style="enable-background:new 0 0 512 512;" version="1.1" viewBox="0 0 512 512" xml:space="preserve" xmlns="http://www.w3.org/2000/svg" xmlns:xlink="http://www.w3.org/1999/xlink"><style type="text/css">
	.st0{fill:url(#SVGID_1_);}
	.st1{fill:#FFFFFF;}
</style><g id="Edges"/><g id="Background"><radialGradient cx="63.139" cy="28.2413" gradientTransform="matrix(0.9986 -5.233596e-02 4.448556e-02 0.8488 -35.8556 428.5829)" gradientUnits="userSpaceOnUse" id="SVGID_1_" r="683.8246"><stop offset="0" style="stop-color:#FED576"/><stop offset="0.2634" style="stop-color:#F47133"/><stop offset="0.6091" style="stop-color:#BC3081"/><stop offset="1" style="stop-color:#4C63D2"/></radialGradient><path class="st0" d="M184,19.5c-0.7,0-1.4,0-2.1,0c-7.7,0.2-14.6,0.4-20.3,0.6c-5.7,0.2-10.3,0.4-13.3,0.7   c-2.8,0.2-5.6,0.5-8.3,0.8s-5.3,0.7-7.9,1.1s-5.1,0.9-7.6,1.4c-2.5,0.5-4.9,1.1-7.3,1.7s-4.8,1.3-7.1,2c-2.3,0.7-4.7,1.5-7,2.4   c-2.3,0.9-4.6,1.8-6.9,2.7c-2.3,1-4.6,2-6.9,3.1c-3.5,1.7-6.4,3.1-8.8,4.5c-2.5,1.4-4.6,2.7-6.7,4.3s-4.2,3.3-6.7,5.6   c-2.4,2.2-5.2,4.9-8.6,8.4c-3,3-5.5,5.6-7.7,8c-2.2,2.4-4,4.5-5.6,6.6c-1.6,2.1-3,4-4.3,6.1c-1.3,2.1-2.5,4.2-3.7,6.6   c-1.8,3.6-3.4,6.9-4.9,10s-2.7,6.2-3.9,9.4c-1.1,3.1-2.1,6.2-3,9.6c-0.9,3.3-1.6,6.8-2.2,10.7c-0.6,3.9-1.2,8.1-1.6,12.7   c-0.5,4.7-0.9,9.9-1.2,15.7c-0.2,3.3-0.4,6.8-0.6,10.6v187.5c0.1,1,0.1,2,0.2,3c0.3,6.4,0.7,12,1.2,16.7s0.9,8.3,1.4,10.8   c0.5,2.8,1.1,5.5,1.8,8.1c0.6,2.7,1.4,5.3,2.1,7.8s1.6,5.1,2.4,7.5c0.9,2.5,1.8,4.9,2.8,7.2s2,4.7,3.1,6.9c1.1,2.2,2.2,4.4,3.4,6.6   c1.2,2.1,2.4,4.2,3.7,6.3s2.6,4,4,6c1.4,1.9,2.9,3.8,4.4,5.7c1.5,1.8,3.1,3.6,4.7,5.3s3.3,3.4,5,5c1.7,1.6,3.5,3.2,5.3,4.7   c1.8,1.5,3.7,3,5.7,4.4c1.9,1.4,3.9,2.8,6,4.1s4.1,2.6,6.3,3.8c2.2,1.2,4.4,2.4,6.6,3.5c3.7,1.8,7.2,3.4,10.5,4.8s6.7,2.7,10.1,3.8   c3.5,1.1,7,2,11,2.8c4,0.8,8.3,1.5,13.1,2c4.9,0.6,10.3,1,16.6,1.4c6.2,0.4,13.2,0.7,21.3,0.9c8,0.2,17,0.4,27.2,0.6   s21.6,0.3,34.4,0.4c16.3,0.2,30.9,0.2,44.1,0.3c13.2,0,25,0,35.6-0.2s20-0.4,28.4-0.8c8.4-0.4,15.8-0.8,22.5-1.5   c3.3-0.3,6.5-0.7,9.5-1c3-0.4,5.8-0.8,8.5-1.2c2.7-0.5,5.2-0.9,7.7-1.5c2.4-0.5,4.8-1.1,7-1.7c2.3-0.6,4.4-1.3,6.5-2   s4.2-1.5,6.2-2.3c4.1-1.6,8.1-3.4,12.2-5.5c3.2-1.6,6.1-3.2,8.8-4.8s5.4-3.5,8-5.4c2.6-1.9,5.1-4,7.6-6.4c2.6-2.3,5.2-4.9,7.9-7.8   c3.4-3.6,6.4-6.9,9-10.2c1.3-1.6,2.5-3.3,3.7-4.9c1.2-1.6,2.3-3.3,3.3-4.9s2-3.3,3-5.1c0.9-1.7,1.8-3.5,2.7-5.4   c1.7-3.7,3.3-7.7,5-12.2c1.2-3.3,2.2-6.6,3.2-10c1-3.5,1.8-7.1,2.6-11c0.8-3.9,1.4-8.1,2-12.8s1.1-9.7,1.5-15.3   c0.4-5.6,0.8-11.8,1.1-18.7s0.5-14.5,0.7-23c0.2-8.4,0.3-17.7,0.4-28c0.1-10.3,0.1-21.5,0.1-33.8c0-18.5-0.1-34.9-0.3-49.2   c-0.2-14.3-0.5-26.7-1-37.3c-0.2-5.3-0.5-10.1-0.8-14.6s-0.6-8.4-0.9-12.1s-0.7-6.9-1.1-9.7c-0.4-2.9-0.9-5.4-1.3-7.6   c-1-4.5-2.1-8.9-3.4-13.1c-1.3-4.2-2.7-8.3-4.3-12.3s-3.3-7.7-5.2-11.4c-1.9-3.7-3.9-7.2-6.1-10.5c-2.2-3.4-4.5-6.6-7-9.7   c-2.5-3.1-5.2-6.1-8-8.9c-2.8-2.8-5.8-5.5-8.9-8.1c-3.1-2.6-6.4-5-9.8-7.3c-3.2-2.1-6.3-4-9.4-5.8c-3.1-1.8-6.3-3.4-9.6-4.8   c-3.3-1.5-6.6-2.8-10.1-4c-3.5-1.2-7.1-2.2-11-3.2c-3.8-0.9-7.9-1.8-12.2-2.5c-4.3-0.7-8.9-1.3-13.8-1.9c-4.9-0.5-10.2-1-15.8-1.3   c-4.4-0.3-9.1-0.5-14-0.7H184z"/></g><g id="Symbol"><g><path class="st1" d="M255.1,139.9c37.9,0,42.4,0.1,57.4,0.8c13.8,0.6,21.4,2.9,26.4,4.9c6.6,2.6,11.4,5.7,16.3,10.6    c5,5,8,9.7,10.6,16.3c1.9,5,4.3,12.5,4.9,26.4c0.7,15,0.8,19.5,0.8,57.4s-0.1,42.4-0.8,57.4c-0.6,13.8-2.9,21.4-4.9,26.4    c-2.6,6.6-5.7,11.4-10.6,16.3c-5,5-9.7,8-16.3,10.6c-5,1.9-12.5,4.3-26.4,4.9c-15,0.7-19.5,0.8-57.4,0.8s-42.4-0.1-57.4-0.8    c-13.8-0.6-21.4-2.9-26.4-4.9c-6.6-2.6-11.4-5.7-16.3-10.6c-5-5-8-9.7-10.6-16.3c-1.9-5-4.3-12.5-4.9-26.4    c-0.7-15-0.8-19.5-0.8-57.4s0.1-42.4,0.8-57.4c0.6-13.8,2.9-21.4,4.9-26.4c2.6-6.6,5.7-11.4,10.6-16.3c5-5,9.7-8,16.3-10.6    c5-1.9,12.5-4.3,26.4-4.9C212.7,140.1,217.2,139.9,255.1,139.9 M255.1,114.3c-38.6,0-43.4,0.2-58.6,0.9    c-15.1,0.7-25.4,3.1-34.5,6.6c-9.3,3.6-17.3,8.5-25.2,16.4c-7.9,7.9-12.8,15.8-16.4,25.2c-3.5,9-5.9,19.4-6.6,34.5    c-0.7,15.2-0.9,20-0.9,58.6c0,38.6,0.2,43.4,0.9,58.6c0.7,15.1,3.1,25.4,6.6,34.5c3.6,9.3,8.5,17.3,16.4,25.2    c7.9,7.9,15.8,12.8,25.2,16.4c9,3.5,19.4,5.9,34.5,6.6c15.2,0.7,20,0.9,58.6,0.9s43.4-0.2,58.6-0.9c15.1-0.7,25.4-3.1,34.5-6.6    c9.3-3.6,17.3-8.5,25.2-16.4c7.9-7.9,12.8-15.8,16.4-25.2c3.5-9,5.9-19.4,6.6-34.5c0.7-15.2,0.9-20,0.9-58.6s-0.2-43.4-0.9-58.6    c-0.7-15.1-3.1-25.4-6.6-34.5c-3.6-9.3-8.5-17.3-16.4-25.2c-7.9-7.9-15.8-12.8-25.2-16.4c-9-3.5-19.4-5.9-34.5-6.6    C298.5,114.5,293.7,114.3,255.1,114.3L255.1,114.3z"/><path class="st1" d="M255.1,183.4c-40.3,0-72.9,32.7-72.9,72.9s32.7,72.9,72.9,72.9s72.9-32.7,72.9-72.9S295.4,183.4,255.1,183.4z     M255.1,303.7c-26.2,0-47.3-21.2-47.3-47.3c0-26.2,21.2-47.3,47.3-47.3s47.3,21.2,47.3,47.3C302.5,282.5,281.3,303.7,255.1,303.7z    "/><circle class="st1" cx="331" cy="180.6" r="17"/></g></g></svg>