<?xml version="1.0" ?><svg style="enable-background:new 0 0 48 48;" version="1.1" viewBox="0 0 48 48" xml:space="preserve" xmlns="http://www.w3.org/2000/svg" xmlns:xlink="http://www.w3.org/1999/xlink"><style type="text/css">
	.st0{display:none;}
	.st1{fill:none;stroke:#303030;stroke-width:0.7;stroke-linecap:round;stroke-linejoin:round;stroke-miterlimit:10;}
	.st2{fill:#303030;}
</style><g class="st0" id="Padding__x26__Artboard"/><g id="Icons"><g><path class="st1" d="M15.63247,22.08547c0-3.75297,3.91996-6.98451,7.67292-6.98451"/><path class="st1" d="M29.96964,34.42184c-2.02119,1.16029-4.41312,1.75142-6.95133,1.54892    c-5.60281-0.44698-10.246-4.86713-10.93402-10.44548c-0.96609-7.83286,5.63094-14.42033,13.46651-13.43782    c5.44026,0.68216,9.79877,5.12997,10.38719,10.58117c0.31703,2.937-0.43073,5.68612-1.89043,7.90987    c-0.0562,0.08561-0.08127,0.18688-0.06976,0.28864L34.45,35.04l-4.17938-0.6741    C30.16653,34.34912,30.06109,34.36935,29.96964,34.42184z"/><path class="st1" d="M15.63247,24.19005c0,0-0.0191,0.71453,0.23147,1.42906"/></g></g></svg>