<?xml version="1.0" ?><svg style="enable-background:new 0 0 48 48;" version="1.1" viewBox="0 0 48 48" xml:space="preserve" xmlns="http://www.w3.org/2000/svg" xmlns:xlink="http://www.w3.org/1999/xlink"><style type="text/css">
	.st0{display:none;}
	.st1{fill:none;stroke:#303030;stroke-width:0.7;stroke-linecap:round;stroke-linejoin:round;stroke-miterlimit:10;}
	.st2{fill:#303030;}
</style><g class="st0" id="Padding__x26__Artboard"/><g id="Icons"><g><path class="st1" d="M12.27063,25.74658l11.30768,11.30769c0.23524,0.23524,0.61667,0.23517,0.85183-0.00016l11.29923-11.30753    l0.83566-0.82704c1.61101-1.61101,2.41221-3.74754,2.41221-5.86684c0-2.12791-0.8012-4.25583-2.41221-5.86684    c-3.22202-3.22202-8.50304-3.22202-11.73368,0l-0.82704,0.83566l-0.83566-0.83566c-3.22202-3.22202-8.50304-3.22202-11.72506,0    c-1.61963,1.61101-2.42082,3.73892-2.42082,5.86684c0,2.1193,0.8012,4.25583,2.42082,5.86684L12.27063,25.74658l11.30768,11.30769    c0.23524,0.23524,0.61667,0.23517,0.85183-0.00016l11.29923-11.30753"/><path class="st1" d="M11.45598,19.85644c0,0.43682,0.04064,0.8745,0.12213,1.30629"/><path class="st1" d="M17.06505,13.0453c-1.3151,0.25299-2.56957,0.88547-3.58154,1.89743    c-0.74809,0.74411-1.2877,1.61988-1.62126,2.55471"/></g></g></svg>